<svg width="30" height="30" viewBox="0 0 30 30" fill="none" xmlns="http://www.w3.org/2000/svg">
<path fill-rule="evenodd" clip-rule="evenodd" d="M19.4538 20.15C18.5888 21.0126 17.4856 21.5968 16.286 21.8276C15.0771 22.0616 13.826 21.9325 12.6904 21.4564C10.3639 20.4823 8.84187 18.2155 8.82073 15.6935C8.80857 13.8395 9.63529 12.0794 11.0699 10.905C12.5045 9.73065 14.3932 9.26785 16.2082 9.64594C17.4047 9.91734 18.4942 10.5364 19.3398 11.4252C20.5258 12.5629 21.2121 14.1246 21.2481 15.7677C21.26 17.4096 20.6138 18.9879 19.4538 20.15Z" stroke="#FF8000" stroke-width="1.5" stroke-linecap="round" stroke-linejoin="round"/>
<path d="M18.8095 10.8948C18.5166 11.1877 18.5166 11.6626 18.8095 11.9555C19.1024 12.2483 19.5772 12.2483 19.8701 11.9555L18.8095 10.8948ZM23.5718 8.25375C23.8647 7.96086 23.8647 7.48598 23.5718 7.19309C23.2789 6.9002 22.8041 6.9002 22.5112 7.19309L23.5718 8.25375ZM20.1168 6.95576C19.7026 6.95326 19.3648 7.28701 19.3623 7.70122C19.3598 8.11542 19.6936 8.45323 20.1078 8.45573L20.1168 6.95576ZM23.037 8.47341C23.4512 8.47591 23.789 8.14215 23.7915 7.72795C23.794 7.31374 23.4602 6.97594 23.046 6.97344L23.037 8.47341ZM23.7915 7.7189C23.789 7.30469 23.4512 6.97094 23.037 6.97344C22.6228 6.97594 22.289 7.31374 22.2915 7.72795L23.7915 7.7189ZM22.3092 10.6571C22.3117 11.0713 22.6495 11.4051 23.0637 11.4026C23.4779 11.4001 23.8117 11.0623 23.8092 10.6481L22.3092 10.6571ZM19.8701 11.9555L23.5718 8.25375L22.5112 7.19309L18.8095 10.8948L19.8701 11.9555ZM20.1078 8.45573L23.037 8.47341L23.046 6.97344L20.1168 6.95576L20.1078 8.45573ZM22.2915 7.72795L22.3092 10.6571L23.8092 10.6481L23.7915 7.7189L22.2915 7.72795Z" fill="#FF8000"/>
</svg>
