<svg width="50" height="50" viewBox="0 0 50 50" fill="none" xmlns="http://www.w3.org/2000/svg">
<path d="M12.5 25.2917C12.0858 25.2917 11.75 25.6275 11.75 26.0417C11.75 26.4559 12.0858 26.7917 12.5 26.7917V25.2917ZM37.5 26.7917C37.9142 26.7917 38.25 26.4559 38.25 26.0417C38.25 25.6275 37.9142 25.2917 37.5 25.2917V26.7917ZM12.5 33.625C12.0858 33.625 11.75 33.9608 11.75 34.375C11.75 34.7893 12.0858 35.125 12.5 35.125V33.625ZM37.5 35.125C37.9142 35.125 38.25 34.7893 38.25 34.375C38.25 33.9608 37.9142 33.625 37.5 33.625V35.125ZM12.5 16.9584C12.0858 16.9584 11.75 17.2942 11.75 17.7084C11.75 18.1226 12.0858 18.4584 12.5 18.4584V16.9584ZM37.5 18.4584C37.9142 18.4584 38.25 18.1226 38.25 17.7084C38.25 17.2942 37.9142 16.9584 37.5 16.9584V18.4584ZM12.5 26.7917H37.5V25.2917H12.5V26.7917ZM12.5 35.125H37.5V33.625H12.5V35.125ZM12.5 18.4584H37.5V16.9584H12.5V18.4584Z" fill="#434343"/>
</svg>
