<svg width="50" height="50" viewBox="0 0 50 50" fill="none" xmlns="http://www.w3.org/2000/svg">
<path d="M25.0063 14.0832C25.4204 14.0732 25.748 13.7294 25.738 13.3153C25.728 12.9012 25.3842 12.5736 24.9701 12.5836L25.0063 14.0832ZM13.4757 25.4021H14.2257C14.2257 25.3964 14.2256 25.3906 14.2255 25.3848L13.4757 25.4021ZM13.4757 30.2292L13.5138 30.9782C13.9127 30.9579 14.2257 30.6286 14.2257 30.2292H13.4757ZM13.4757 36.6667L13.4376 37.4157C13.4503 37.4164 13.463 37.4167 13.4757 37.4167V36.6667ZM20.1278 37.4167C20.542 37.4167 20.8778 37.0809 20.8778 36.6667C20.8778 36.2525 20.542 35.9167 20.1278 35.9167V37.4167ZM24.2382 13.3334C24.2382 13.7476 24.574 14.0834 24.9882 14.0834C25.4024 14.0834 25.7382 13.7476 25.7382 13.3334H24.2382ZM25.7382 8.33337C25.7382 7.91916 25.4024 7.58337 24.9882 7.58337C24.574 7.58337 24.2382 7.91916 24.2382 8.33337H25.7382ZM25.0063 12.5836C24.5922 12.5736 24.2484 12.9012 24.2384 13.3153C24.2284 13.7294 24.556 14.0732 24.9701 14.0832L25.0063 12.5836ZM36.5007 25.4021L35.7509 25.3848C35.7508 25.3906 35.7507 25.3964 35.7507 25.4021L36.5007 25.4021ZM36.5007 30.2292H35.7507C35.7507 30.6286 36.0637 30.9579 36.4626 30.9782L36.5007 30.2292ZM36.5007 36.6667V37.4167C36.5134 37.4167 36.5261 37.4164 36.5388 37.4157L36.5007 36.6667ZM29.8486 35.9167C29.4344 35.9167 29.0986 36.2525 29.0986 36.6667C29.0986 37.0809 29.4344 37.4167 29.8486 37.4167V35.9167ZM20.8757 36.6695C20.8772 36.2552 20.5427 35.9182 20.1285 35.9167C19.7142 35.9152 19.3772 36.2498 19.3757 36.664L20.8757 36.6695ZM21.5486 40.2084L22.0895 39.6888L22.0883 39.6875L21.5486 40.2084ZM28.4236 40.2084L27.884 39.6875L27.8828 39.6888L28.4236 40.2084ZM30.5965 36.664C30.595 36.2498 30.258 35.9152 29.8438 35.9167C29.4296 35.9182 29.095 36.2552 29.0966 36.6695L30.5965 36.664ZM20.1236 35.9167C19.7094 35.9167 19.3736 36.2525 19.3736 36.6667C19.3736 37.0809 19.7094 37.4167 20.1236 37.4167V35.9167ZM29.8486 37.4167C30.2628 37.4167 30.5986 37.0809 30.5986 36.6667C30.5986 36.2525 30.2628 35.9167 29.8486 35.9167V37.4167ZM24.9701 12.5836C18.046 12.7505 12.5662 18.4952 12.7259 25.4194L14.2255 25.3848C14.0849 19.2882 18.9098 14.2301 25.0063 14.0832L24.9701 12.5836ZM12.7257 25.4021V30.2292H14.2257V25.4021H12.7257ZM13.4376 29.4802C11.3246 29.5877 9.66663 31.3323 9.66663 33.448H11.1666C11.1666 32.1311 12.1986 31.0452 13.5138 30.9782L13.4376 29.4802ZM9.66663 33.448C9.66663 35.5636 11.3246 37.3082 13.4376 37.4157L13.5138 35.9177C12.1986 35.8507 11.1666 34.7649 11.1666 33.448H9.66663ZM13.4757 37.4167H20.1278V35.9167H13.4757V37.4167ZM25.7382 13.3334V8.33337H24.2382V13.3334H25.7382ZM24.9701 14.0832C31.0667 14.2301 35.8916 19.2882 35.7509 25.3848L37.2505 25.4194C37.4103 18.4952 31.9304 12.7505 25.0063 12.5836L24.9701 14.0832ZM35.7507 25.4021V30.2292H37.2507V25.4021H35.7507ZM36.4626 30.9782C37.7778 31.0452 38.8098 32.1311 38.8098 33.448H40.3098C40.3098 31.3323 38.6518 29.5877 36.5388 29.4802L36.4626 30.9782ZM38.8098 33.448C38.8098 34.7649 37.7778 35.8507 36.4626 35.9177L36.5388 37.4157C38.6518 37.3082 40.3098 35.5636 40.3098 33.448H38.8098ZM36.5007 35.9167H29.8486V37.4167H36.5007V35.9167ZM19.3757 36.664C19.3702 38.18 19.9561 39.6384 21.009 40.7292L22.0883 39.6875C21.3066 38.8777 20.8716 37.795 20.8757 36.6695L19.3757 36.664ZM21.0078 40.728C22.048 41.8108 23.4846 42.4228 24.9861 42.4228V40.9228C23.8929 40.9228 22.8469 40.4772 22.0895 39.6888L21.0078 40.728ZM24.9861 42.4228C26.4876 42.4228 27.9243 41.8108 28.9645 40.728L27.8828 39.6888C27.1254 40.4772 26.0794 40.9228 24.9861 40.9228V42.4228ZM28.9633 40.7292C30.0161 39.6384 30.6021 38.18 30.5965 36.664L29.0966 36.6695C29.1007 37.795 28.6657 38.8777 27.884 39.6875L28.9633 40.7292ZM20.1236 37.4167H29.8486V35.9167H20.1236V37.4167Z" fill="#434343"/>
</svg>
