<svg width="30" height="30" viewBox="0 0 30 30" fill="none" xmlns="http://www.w3.org/2000/svg">
<path fill-rule="evenodd" clip-rule="evenodd" d="M8.75 12.4272C8.75171 11.2055 9.11868 10.0123 9.80375 9.0009C10.4931 7.9806 11.4691 7.18725 12.6087 6.7209C14.9426 5.76467 17.6217 6.29125 19.42 8.05965C20.7395 9.36201 21.3995 11.1911 21.2155 13.036C21.0315 14.8808 20.0233 16.5436 18.4725 17.5597C17.4346 18.2138 16.2265 18.5464 15 18.5159C13.3569 18.55 11.7673 17.931 10.58 16.7947C9.41056 15.6421 8.75148 14.0691 8.75 12.4272Z" stroke="#FF8000" stroke-width="1.5" stroke-linecap="round" stroke-linejoin="round"/>
<path d="M15.75 18.5159C15.75 18.1017 15.4142 17.7659 15 17.7659C14.5858 17.7659 14.25 18.1017 14.25 18.5159H15.75ZM14.25 21.2509C14.25 21.6651 14.5858 22.0009 15 22.0009C15.4142 22.0009 15.75 21.6651 15.75 21.2509H14.25ZM17.5 22.0009C17.9142 22.0009 18.25 21.6651 18.25 21.2509C18.25 20.8367 17.9142 20.5009 17.5 20.5009V22.0009ZM15 20.5009C14.5858 20.5009 14.25 20.8367 14.25 21.2509C14.25 21.6651 14.5858 22.0009 15 22.0009V20.5009ZM14.25 23.7509C14.25 24.1651 14.5858 24.5009 15 24.5009C15.4142 24.5009 15.75 24.1651 15.75 23.7509H14.25ZM15.75 21.2509C15.75 20.8367 15.4142 20.5009 15 20.5009C14.5858 20.5009 14.25 20.8367 14.25 21.2509H15.75ZM15 22.0009C15.4142 22.0009 15.75 21.6651 15.75 21.2509C15.75 20.8367 15.4142 20.5009 15 20.5009V22.0009ZM12.5 20.5009C12.0858 20.5009 11.75 20.8367 11.75 21.2509C11.75 21.6651 12.0858 22.0009 12.5 22.0009V20.5009ZM14.25 18.5159V21.2509H15.75V18.5159H14.25ZM17.5 20.5009H15V22.0009H17.5V20.5009ZM15.75 23.7509V21.2509H14.25V23.7509H15.75ZM15 20.5009H12.5V22.0009H15V20.5009Z" fill="#FF8000"/>
</svg>
